{
    "asset" : {
        "generator" : "Khronos glTF Blender I/O v0.9.36",
        "version" : "2.0"
    },
    "scene" : 0,
    "scenes" : [
        {
            "name" : "Scene",
            "nodes" : [
                0,
                1,
                7
            ]
        }
    ],
    "nodes" : [
        {
            "name" : "Light",
            "rotation" : [
                0.16907575726509094,
                0.7558803558349609,
                -0.27217137813568115,
                0.570947527885437
            ],
            "translation" : [
                4.076245307922363,
                5.903861999511719,
                -1.0054539442062378
            ]
        },
        {
            "name" : "Camera",
            "rotation" : [
                0.483536034822464,
                0.33687159419059753,
                -0.20870360732078552,
                0.7804827094078064
            ],
            "translation" : [
                7.358891487121582,
                4.958309173583984,
                6.925790786743164
            ]
        },
        {
            "mesh" : 0,
            "name" : "Fork__0"
        },
        {
            "children" : [
                2
            ],
            "name" : "Fork",
            "rotation" : [
                -0.7071068286895752,
                0,
                0,
                0.7071068286895752
            ],
            "translation" : [
                -1.1718757152557373,
                2.6957225799560547,
                -12.004294395446777
            ]
        },
        {
            "children" : [
                3
            ],
            "name" : "RootNode"
        },
        {
            "children" : [
                4
            ],
            "name" : "7bf03092f1d74ea0abd5a56d3d53451f.fbx",
            "rotation" : [
                0.7071068286895752,
                0,
                0,
                0.7071068286895752
            ]
        },
        {
            "children" : [
                5
            ],
            "name" : "RootNode (model correction matrix)"
        },
        {
            "children" : [
                6
            ],
            "name" : "RootNode (gltf orientation matrix)"
        }
    ],
    "materials" : [
        {
            "doubleSided" : true,
            "name" : "Scene_-_Root",
            "normalTexture" : {
                "index" : 0,
                "texCoord" : 0
            },
            "pbrMetallicRoughness" : {
                "baseColorTexture" : {
                    "index" : 1,
                    "texCoord" : 0
                },
                "metallicRoughnessTexture" : {
                    "index" : 2,
                    "texCoord" : 0
                }
            }
        }
    ],
    "meshes" : [
        {
            "name" : "Fork__0",
            "primitives" : [
                {
                    "attributes" : {
                        "POSITION" : 0,
                        "NORMAL" : 1,
                        "TEXCOORD_0" : 2
                    },
                    "indices" : 3,
                    "material" : 0
                }
            ]
        }
    ],
    "textures" : [
        {
            "source" : 0
        },
        {
            "source" : 1
        },
        {
            "source" : 2
        }
    ],
    "images" : [
        {
            "bufferView" : 4,
            "mimeType" : "image/png",
            "name" : "Scene_-_Root_normal"
        },
        {
            "bufferView" : 5,
            "mimeType" : "image/png",
            "name" : "Scene_-_Root_baseColor"
        },
        {
            "bufferView" : 6,
            "mimeType" : "image/png",
            "name" : "Scene_-_Root_metallicRoughness"
        }
    ],
    "accessors" : [
        {
            "bufferView" : 0,
            "componentType" : 5126,
            "count" : 784,
            "max" : [
                5.563683986663818,
                7.162879943847656,
                53.06151580810547
            ],
            "min" : [
                -5.563684463500977,
                -0.9299744367599487,
                -56.655521392822266
            ],
            "type" : "VEC3"
        },
        {
            "bufferView" : 1,
            "componentType" : 5126,
            "count" : 784,
            "type" : "VEC3"
        },
        {
            "bufferView" : 2,
            "componentType" : 5126,
            "count" : 784,
            "type" : "VEC2"
        },
        {
            "bufferView" : 3,
            "componentType" : 5123,
            "count" : 3324,
            "type" : "SCALAR"
        }
    ],
    "bufferViews" : [
        {
            "buffer" : 0,
            "byteLength" : 9408,
            "byteOffset" : 0
        },
        {
            "buffer" : 0,
            "byteLength" : 9408,
            "byteOffset" : 9408
        },
        {
            "buffer" : 0,
            "byteLength" : 6272,
            "byteOffset" : 18816
        },
        {
            "buffer" : 0,
            "byteLength" : 6648,
            "byteOffset" : 25088
        },
        {
            "buffer" : 0,
            "byteLength" : 15800,
            "byteOffset" : 31736
        },
        {
            "buffer" : 0,
            "byteLength" : 15800,
            "byteOffset" : 47536
        },
        {
            "buffer" : 0,
            "byteLength" : 15801,
            "byteOffset" : 63336
        }
    ],
    "buffers" : [
        {
            "byteLength" : 79140,
            "uri" : "data:application/octet-stream;base64,"
        }
    ]
}
